M48
INCH
T01C0.015
T02C0.0287
T03C0.0354
T04C0.038
T05C0.0394
T06C0.04
T07C0.052
T08C0.1024
T09C0.1063
%
T01
X+004609Y+008628
X+006172Y+007003
X+006984Y+007878
X+007422Y+006753
X+008422Y+006441
X+007859Y+005628
X+006859Y+005039
X+008609Y+004566
X+012672Y+005316
X+012234Y+006753
X+014484Y+007566
X+015484Y+006441
X+016359Y+005941
X+015251Y+005049
X+014609Y+004628
X+017797Y+006191
X+017797Y+007253
X+018984Y+007816
X+017609Y+010441
X+017734Y+011376
X+018672Y+010983
X+018234Y+012566
X+018609Y+013378
X+016297Y+013378
X+015047Y+013316
X+013922Y+012128
X+012922Y+012253
X+012547Y+013316
X+009734Y+012066
X+008297Y+012691
X+006797Y+012566
X+007234Y+010503
X+009484Y+010316
X+013859Y+010253
X+014297Y+010066
X+015109Y+010378
X+015359Y+011691
X+016422Y+016628
X+016171Y+018343
X+014796Y+018391
X+014547Y+016816
X+013484Y+020691
X+011922Y+021190
X+011859Y+022566
X+012734Y+023878
X+013484Y+023253
X+015172Y+024628
X+015047Y+025691
X+016484Y+025878
X+017671Y+026626
X+018108Y+027063
X+015859Y+028813
X+013797Y+028691
X+013172Y+028128
X+012672Y+029253
X+012984Y+029878
X+013859Y+029628
X+013359Y+031503
X+011172Y+032378
X+010172Y+034253
X+010672Y+035066
X+011609Y+034691
X+012172Y+035628
X+013047Y+034191
X+015172Y+035066
X+018484Y+034566
X+018296Y+039942
X+016859Y+041312
X+013796Y+038687
X+013234Y+038941
X+012109Y+038753
X+011672Y+037253
X+009859Y+038878
X+007547Y+037128
X+006797Y+037566
X+006234Y+039691
X+005797Y+039691
X+005359Y+039691
X+005297Y+040253
X+005734Y+040253
X+006297Y+040253
X+009734Y+035566
X+009109Y+034691
X+008359Y+032378
X+009234Y+029753
X+010172Y+029566
X+008172Y+029378
X+008359Y+026566
X+006984Y+026566
X+005922Y+027441
X+004734Y+028191
X+004859Y+024378
X+006047Y+023316
X+004359Y+022628
X+005922Y+020628
X+006984Y+019503
X+005109Y+019128
X+007359Y+017066
X+007922Y+016566
X+008364Y+017445
X+010109Y+017316
X+010109Y+016191
X+006922Y+015316
X+008359Y+021316
X+009672Y+020878
X+009984Y+021316
X+008172Y+024628
X+009922Y+026878
X+011047Y+026191
X+018109Y+024128
X+004859Y+033253
T02
X+006172Y+032441
X+015671Y+033441
T03
X+018172Y+036441
X+017172Y+036441
X+016172Y+036441
X+015172Y+036441
X+014172Y+036441
X+013172Y+036441
X+012172Y+036441
X+011172Y+036441
X+010172Y+036441
X+009172Y+036441
X+008172Y+036441
X+007172Y+036441
X+006172Y+036441
X+005172Y+036441
X+005172Y+031441
X+005172Y+030441
X+006172Y+030441
X+007172Y+030441
X+008172Y+030441
X+009172Y+030441
X+010172Y+030441
X+011172Y+030441
X+012172Y+030441
X+013172Y+030441
X+014172Y+030441
X+015172Y+030441
X+016172Y+030441
X+017172Y+030441
X+018172Y+030441
T04
X+006922Y+008691
X+007922Y+008691
X+008922Y+008691
T05
X+015672Y+022488
X+016656Y+022488
X+014688Y+022488
X+014688Y+028197
X+016656Y+028197
X+016951Y+031411
X+016951Y+033183
X+014392Y+033183
X+014392Y+031411
X+008951Y+031411
X+008951Y+033183
X+006392Y+033183
X+006392Y+031411
X+006688Y+028197
X+008656Y+028197
X+008656Y+022488
X+007672Y+022488
X+006688Y+022488
T06
X+009797Y+018941
X+013547Y+018936
X+017297Y+018936
X+017297Y+013873
X+013547Y+013873
X+009797Y+013873
X+006046Y+013873
X+006046Y+008811
X+009797Y+008811
X+013547Y+008811
X+017297Y+008811
X+006046Y+018941
X+009734Y+043441
X+009734Y+044441
X+010734Y+044441
X+011734Y+044441
X+011734Y+043441
X+012734Y+043441
X+012734Y+044441
X+013734Y+044441
X+013734Y+043441
X+013671Y+045937
X+014671Y+045937
X+012671Y+045937
X+011671Y+045937
X+010671Y+045937
X+009671Y+045937
X+008671Y+045937
X+010734Y+043441
T07
X+009797Y+017941
X+009797Y+014691
X+009797Y+012873
X+009797Y+009623
X+009797Y+007811
X+009797Y+004561
X+013547Y+004561
X+013547Y+007811
X+013547Y+009623
X+013547Y+012873
X+013547Y+014686
X+013547Y+017936
X+017297Y+017936
X+017297Y+014686
X+017297Y+012873
X+017297Y+009623
X+017297Y+007811
X+017297Y+004561
X+006046Y+004561
X+006046Y+007811
X+006046Y+009623
X+006046Y+012873
X+006046Y+014691
X+006046Y+017941
T08
X+013428Y+025441
X+009916Y+025441
X+005428Y+025441
X+017916Y+025441
T09
X+005416Y+045941G85X+005928Y+045941
X+017416Y+045941G85X+017928Y+045941
T00
M30
