G04 DipTrace 4.1.3.1*
G04 uTemp1.2.GBO*
%MOIN*%
G04 #@! TF.FileFunction,Legend,Bot*
G04 #@! TF.Part,Single*
%ADD10C,0.009843*%
%ADD27C,0.006*%
%ADD29C,0.005984*%
%ADD99C,0.004632*%
%ADD101C,0.013895*%
%FSLAX26Y26*%
G04*
G70*
G90*
G75*
G01*
G04 BotSilk*
%LPD*%
X1014717Y1657210D2*
D27*
X944682D1*
X979682Y1622263D2*
Y1692206D1*
X929667Y1832093D2*
X804682D1*
X1029697D2*
X1154682D1*
X1029697Y1432084D2*
X1154682D1*
X929667D2*
X804682D1*
Y1832093D1*
X1154682D2*
Y1432084D1*
X1029697Y1832093D2*
D29*
Y1844567D1*
X929667D1*
Y1832093D1*
X639678Y1657210D2*
D27*
X569643D1*
X604643Y1622263D2*
Y1692206D1*
X554628Y1832093D2*
X429643D1*
X654658D2*
X779643D1*
X654658Y1432084D2*
X779643D1*
X554628D2*
X429643D1*
Y1832093D1*
X779643D2*
Y1432084D1*
X654658Y1832093D2*
D29*
Y1844567D1*
X554628D1*
Y1832093D1*
X1014717Y1150469D2*
D27*
X944682D1*
X979682Y1115522D2*
Y1185466D1*
X929667Y1325353D2*
X804682D1*
X1029697D2*
X1154682D1*
X1029697Y925343D2*
X1154682D1*
X929667D2*
X804682D1*
Y1325353D1*
X1154682D2*
Y925343D1*
X1029697Y1325353D2*
D29*
Y1337827D1*
X929667D1*
Y1325353D1*
X639678Y1150469D2*
D27*
X569643D1*
X604643Y1115522D2*
Y1185466D1*
X554628Y1325353D2*
X429643D1*
X654658D2*
X779643D1*
X654658Y925343D2*
X779643D1*
X554628D2*
X429643D1*
Y1325353D1*
X779643D2*
Y925343D1*
X654658Y1325353D2*
D29*
Y1337827D1*
X554628D1*
Y1325353D1*
X1014717Y644210D2*
D27*
X944682D1*
X979682Y609263D2*
Y679206D1*
X929667Y819093D2*
X804682D1*
X1029697D2*
X1154682D1*
X1029697Y419084D2*
X1154682D1*
X929667D2*
X804682D1*
Y819093D1*
X1154682D2*
Y419084D1*
X1029697Y819093D2*
D29*
Y831567D1*
X929667D1*
Y819093D1*
X639678Y644210D2*
D27*
X569643D1*
X604643Y609263D2*
Y679206D1*
X554628Y819093D2*
X429643D1*
X654658D2*
X779643D1*
X654658Y419084D2*
X779643D1*
X554628D2*
X429643D1*
Y819093D1*
X779643D2*
Y419084D1*
X654658Y819093D2*
D29*
Y831567D1*
X554628D1*
Y819093D1*
X1764729Y1656717D2*
D27*
X1694694D1*
X1729694Y1621770D2*
Y1691714D1*
X1679679Y1831601D2*
X1554694D1*
X1779709D2*
X1904694D1*
X1779709Y1431591D2*
X1904694D1*
X1679679D2*
X1554694D1*
Y1831601D1*
X1904694D2*
Y1431591D1*
X1779709Y1831601D2*
D29*
Y1844075D1*
X1679679D1*
Y1831601D1*
X1389729Y1656717D2*
D27*
X1319694D1*
X1354694Y1621770D2*
Y1691714D1*
X1304679Y1831601D2*
X1179694D1*
X1404709D2*
X1529694D1*
X1404709Y1431591D2*
X1529694D1*
X1304679D2*
X1179694D1*
Y1831601D1*
X1529694D2*
Y1431591D1*
X1404709Y1831601D2*
D29*
Y1844075D1*
X1304679D1*
Y1831601D1*
X1764729Y1150468D2*
D27*
X1694694D1*
X1729694Y1115521D2*
Y1185465D1*
X1679679Y1325352D2*
X1554694D1*
X1779709D2*
X1904694D1*
X1779709Y925342D2*
X1904694D1*
X1679679D2*
X1554694D1*
Y1325352D1*
X1904694D2*
Y925342D1*
X1779709Y1325352D2*
D29*
Y1337826D1*
X1679679D1*
Y1325352D1*
X1389729Y1150468D2*
D27*
X1319694D1*
X1354694Y1115521D2*
Y1185465D1*
X1304679Y1325352D2*
X1179694D1*
X1404709D2*
X1529694D1*
X1404709Y925342D2*
X1529694D1*
X1304679D2*
X1179694D1*
Y1325352D1*
X1529694D2*
Y925342D1*
X1404709Y1325352D2*
D29*
Y1337826D1*
X1304679D1*
Y1325352D1*
X1764717Y644210D2*
D27*
X1694682D1*
X1729682Y609263D2*
Y679206D1*
X1679667Y819093D2*
X1554682D1*
X1779697D2*
X1904682D1*
X1779697Y419084D2*
X1904682D1*
X1679667D2*
X1554682D1*
Y819093D1*
X1904682D2*
Y419084D1*
X1779697Y819093D2*
D29*
Y831567D1*
X1679667D1*
Y819093D1*
X1389717Y644210D2*
D27*
X1319682D1*
X1354682Y609263D2*
Y679206D1*
X1304667Y819093D2*
X1179682D1*
X1404697D2*
X1529682D1*
X1404697Y419084D2*
X1529682D1*
X1304667D2*
X1179682D1*
Y819093D1*
X1529682D2*
Y419084D1*
X1404697Y819093D2*
D29*
Y831567D1*
X1304667D1*
Y819093D1*
X1685290Y3347827D2*
D10*
X1449097D1*
Y3111626D1*
X1685290D1*
Y3347827D1*
X649097Y3111626D2*
X885290D1*
Y3347827D1*
X649097D1*
Y3111626D1*
X417131Y4693656D2*
Y3393656D1*
X1917131D1*
Y4693656D1*
X417131D1*
X467081Y4443666D2*
Y3743616D1*
X1867181D1*
Y4443666D1*
X467081D1*
X1598475Y2086339D2*
D101*
X1602753Y2094895D1*
X1611408Y2103550D1*
X1619964Y2107828D1*
X1637174D1*
X1645830Y2103550D1*
X1654385Y2094895D1*
X1658763Y2086339D1*
X1663041Y2073406D1*
Y2051818D1*
X1658763Y2038984D1*
X1654385Y2030329D1*
X1645830Y2021773D1*
X1637174Y2017396D1*
X1619964D1*
X1611408Y2021773D1*
X1602753Y2030329D1*
X1598475Y2038984D1*
X1506118Y2086339D2*
X1510396Y2094895D1*
X1519051Y2103550D1*
X1527607Y2107828D1*
X1544818D1*
X1553473Y2103550D1*
X1562029Y2094895D1*
X1566406Y2086339D1*
X1570684Y2073406D1*
Y2051818D1*
X1566406Y2038984D1*
X1562029Y2030329D1*
X1553473Y2021773D1*
X1544818Y2017396D1*
X1527607D1*
X1519051Y2021773D1*
X1510396Y2030329D1*
X1506118Y2038984D1*
X1390846Y2107828D2*
Y2017396D1*
X1352047D1*
X1339114Y2021773D1*
X1334836Y2026051D1*
X1330558Y2034607D1*
Y2047540D1*
X1334836Y2056195D1*
X1339114Y2060473D1*
X1352047Y2064751D1*
X1339114Y2069128D1*
X1334836Y2073406D1*
X1330558Y2081962D1*
Y2090617D1*
X1334836Y2099173D1*
X1339114Y2103550D1*
X1352047Y2107828D1*
X1390846D1*
Y2064751D2*
X1352047D1*
X1302767Y2107828D2*
X1268345Y2064751D1*
Y2017396D1*
X1233923Y2107828D2*
X1268345Y2064751D1*
X1206133Y2062562D2*
X1156390D1*
X1068312Y2094895D2*
X1076867Y2103550D1*
X1089800Y2107828D1*
X1107011D1*
X1119944Y2103550D1*
X1128600Y2094895D1*
Y2086339D1*
X1124222Y2077684D1*
X1119944Y2073406D1*
X1111389Y2069128D1*
X1085523Y2060473D1*
X1076867Y2056195D1*
X1072589Y2051818D1*
X1068312Y2043262D1*
Y2030329D1*
X1076867Y2021773D1*
X1089800Y2017396D1*
X1107011D1*
X1119944Y2021773D1*
X1128600Y2030329D1*
X971578Y2017396D2*
X1006099Y2107828D1*
X1040521Y2017396D1*
X1027588Y2047540D2*
X984511D1*
X813228Y2017396D2*
Y2107729D1*
X856305Y2047540D1*
X791739D1*
X759671Y2026051D2*
X763949Y2021674D1*
X759671Y2017396D1*
X755294Y2021674D1*
X759671Y2026051D1*
X701637Y2107729D2*
X714570Y2103451D1*
X723225Y2090518D1*
X727503Y2069029D1*
Y2056096D1*
X723225Y2034607D1*
X714570Y2021674D1*
X701637Y2017396D1*
X693081D1*
X680148Y2021674D1*
X671592Y2034607D1*
X667215Y2056096D1*
Y2069029D1*
X671592Y2090518D1*
X680148Y2103451D1*
X693081Y2107729D1*
X701637D1*
X671592Y2090518D2*
X723225Y2034607D1*
X990388Y1963360D2*
D99*
X991814Y1966211D1*
X994699Y1969096D1*
X997551Y1970522D1*
X1003288D1*
X1006173Y1969096D1*
X1009025Y1966211D1*
X1010484Y1963360D1*
X1011910Y1959048D1*
Y1951852D1*
X1010484Y1947575D1*
X1009025Y1944689D1*
X1006173Y1941838D1*
X1003288Y1940378D1*
X997551D1*
X994699Y1941838D1*
X991814Y1944689D1*
X990388Y1947575D1*
X981125Y1970522D2*
Y1940378D1*
X963914D1*
X954650Y1964752D2*
X951765Y1966211D1*
X947454Y1970489D1*
Y1940378D1*
X621799Y1963360D2*
X623225Y1966211D1*
X626110Y1969096D1*
X628962Y1970522D1*
X634699D1*
X637584Y1969096D1*
X640436Y1966211D1*
X641895Y1963360D1*
X643321Y1959048D1*
Y1951852D1*
X641895Y1947575D1*
X640436Y1944689D1*
X637584Y1941838D1*
X634699Y1940378D1*
X628962D1*
X626110Y1941838D1*
X623225Y1944689D1*
X621799Y1947575D1*
X612535Y1970522D2*
Y1940378D1*
X595324D1*
X584602Y1963326D2*
Y1964752D1*
X583176Y1967637D1*
X581750Y1969063D1*
X578865Y1970489D1*
X573128D1*
X570276Y1969063D1*
X568850Y1967637D1*
X567391Y1964752D1*
Y1961900D1*
X568850Y1959015D1*
X571702Y1954737D1*
X586061Y1940378D1*
X565965D1*
X996838Y1456619D2*
X998264Y1459471D1*
X1001149Y1462356D1*
X1004001Y1463782D1*
X1009738D1*
X1012623Y1462356D1*
X1015475Y1459471D1*
X1016934Y1456619D1*
X1018360Y1452308D1*
Y1445112D1*
X1016934Y1440834D1*
X1015475Y1437949D1*
X1012623Y1435097D1*
X1009738Y1433638D1*
X1004001D1*
X1001149Y1435097D1*
X998264Y1437949D1*
X996838Y1440834D1*
X987575Y1463782D2*
Y1433638D1*
X970364D1*
X958215Y1463749D2*
X942463D1*
X951052Y1452275D1*
X946741D1*
X943889Y1450849D1*
X942463Y1449423D1*
X941004Y1445112D1*
Y1442260D1*
X942463Y1437949D1*
X945315Y1435064D1*
X949626Y1433638D1*
X953937D1*
X958215Y1435064D1*
X959641Y1436523D1*
X961100Y1439375D1*
X622512Y1456619D2*
X623938Y1459471D1*
X626823Y1462356D1*
X629675Y1463782D1*
X635412D1*
X638297Y1462356D1*
X641149Y1459471D1*
X642608Y1456619D1*
X644034Y1452308D1*
Y1445112D1*
X642608Y1440834D1*
X641149Y1437949D1*
X638297Y1435097D1*
X635412Y1433638D1*
X629675D1*
X626823Y1435097D1*
X623938Y1437949D1*
X622512Y1440834D1*
X613248Y1463782D2*
Y1433638D1*
X596037D1*
X572415D2*
Y1463749D1*
X586774Y1443686D1*
X565252D1*
X996838Y950360D2*
X998264Y953211D1*
X1001149Y956096D1*
X1004001Y957522D1*
X1009738D1*
X1012623Y956096D1*
X1015475Y953211D1*
X1016934Y950360D1*
X1018360Y946048D1*
Y938852D1*
X1016934Y934575D1*
X1015475Y931689D1*
X1012623Y928838D1*
X1009738Y927378D1*
X1004001D1*
X1001149Y928838D1*
X998264Y931689D1*
X996838Y934575D1*
X987575Y957522D2*
Y927378D1*
X970364D1*
X943889Y957489D2*
X958215D1*
X959641Y944589D1*
X958215Y946015D1*
X953904Y947474D1*
X949626D1*
X945315Y946015D1*
X942430Y943163D1*
X941004Y938852D1*
Y936000D1*
X942430Y931689D1*
X945315Y928804D1*
X949626Y927378D1*
X953904D1*
X958215Y928804D1*
X959641Y930264D1*
X961100Y933115D1*
X621069Y950360D2*
X622495Y953211D1*
X625380Y956096D1*
X628232Y957522D1*
X633969D1*
X636854Y956096D1*
X639706Y953211D1*
X641165Y950360D1*
X642591Y946048D1*
Y938852D1*
X641165Y934575D1*
X639706Y931689D1*
X636854Y928838D1*
X633969Y927378D1*
X628232D1*
X625380Y928838D1*
X622495Y931689D1*
X621069Y934575D1*
X611806Y957522D2*
Y927378D1*
X594595D1*
X568120Y953211D2*
X569546Y956063D1*
X573857Y957489D1*
X576709D1*
X581020Y956063D1*
X583905Y951752D1*
X585331Y944589D1*
Y937426D1*
X583905Y931689D1*
X581020Y928804D1*
X576709Y927378D1*
X575283D1*
X571005Y928804D1*
X568120Y931689D1*
X566694Y936000D1*
Y937426D1*
X568120Y941737D1*
X571005Y944589D1*
X575283Y946015D1*
X576709D1*
X581020Y944589D1*
X583905Y941737D1*
X585331Y937426D1*
X1566105Y2902991D2*
X1584742D1*
Y2872847D1*
X1566105D1*
X1584742Y2888632D2*
X1573268D1*
X1556842Y2897221D2*
X1553957Y2898680D1*
X1549646Y2902958D1*
Y2872847D1*
X772555Y2902991D2*
X791192D1*
Y2872847D1*
X772555D1*
X791192Y2888632D2*
X779718D1*
X761832Y2895795D2*
Y2897221D1*
X760407Y2900106D1*
X758981Y2901532D1*
X756096Y2902958D1*
X750359D1*
X747507Y2901532D1*
X746081Y2900106D1*
X744622Y2897221D1*
Y2894369D1*
X746081Y2891484D1*
X748933Y2887206D1*
X763292Y2872847D1*
X743196D1*
X1737194Y1970030D2*
Y1947082D1*
X1738620Y1942771D1*
X1740079Y1941345D1*
X1742931Y1939886D1*
X1745816D1*
X1748668Y1941345D1*
X1750094Y1942771D1*
X1751553Y1947082D1*
Y1949934D1*
X1710720Y1969997D2*
X1725045D1*
X1726471Y1957097D1*
X1725045Y1958523D1*
X1720734Y1959982D1*
X1716457D1*
X1712146Y1958523D1*
X1709260Y1955671D1*
X1707835Y1951360D1*
Y1948508D1*
X1709260Y1944197D1*
X1712146Y1941312D1*
X1716457Y1939886D1*
X1720734D1*
X1725045Y1941312D1*
X1726471Y1942771D1*
X1727931Y1945623D1*
X1361465Y1970030D2*
Y1947082D1*
X1362890Y1942771D1*
X1364350Y1941345D1*
X1367202Y1939886D1*
X1370087D1*
X1372938Y1941345D1*
X1374364Y1942771D1*
X1375824Y1947082D1*
Y1949934D1*
X1334990Y1965719D2*
X1336416Y1968571D1*
X1340727Y1969997D1*
X1343579D1*
X1347890Y1968571D1*
X1350775Y1964260D1*
X1352201Y1957097D1*
Y1949934D1*
X1350775Y1944197D1*
X1347890Y1941312D1*
X1343579Y1939886D1*
X1342153D1*
X1337875Y1941312D1*
X1334990Y1944197D1*
X1333564Y1948508D1*
Y1949934D1*
X1334990Y1954245D1*
X1337875Y1957097D1*
X1342153Y1958523D1*
X1343579D1*
X1347890Y1957097D1*
X1350775Y1954245D1*
X1352201Y1949934D1*
X1736481Y1463781D2*
Y1440833D1*
X1737907Y1436522D1*
X1739366Y1435096D1*
X1742218Y1433637D1*
X1745103D1*
X1747955Y1435096D1*
X1749381Y1436522D1*
X1750840Y1440833D1*
Y1443685D1*
X1708548Y1453733D2*
X1710007Y1449422D1*
X1712859Y1446537D1*
X1717170Y1445111D1*
X1718596D1*
X1722907Y1446537D1*
X1725758Y1449422D1*
X1727218Y1453733D1*
Y1455159D1*
X1725758Y1459470D1*
X1722907Y1462322D1*
X1718596Y1463748D1*
X1717170D1*
X1712859Y1462322D1*
X1710007Y1459470D1*
X1708548Y1453733D1*
Y1446537D1*
X1710007Y1439374D1*
X1712859Y1435063D1*
X1717170Y1433637D1*
X1720021D1*
X1724332Y1435063D1*
X1725758Y1437948D1*
X1370424Y1463781D2*
Y1440833D1*
X1371850Y1436522D1*
X1373309Y1435096D1*
X1376161Y1433637D1*
X1379046D1*
X1381898Y1435096D1*
X1383324Y1436522D1*
X1384783Y1440833D1*
Y1443685D1*
X1361160Y1458011D2*
X1358275Y1459470D1*
X1353964Y1463748D1*
Y1433637D1*
X1336079Y1463748D2*
X1340390Y1462322D1*
X1343275Y1458011D1*
X1344701Y1450848D1*
Y1446537D1*
X1343275Y1439374D1*
X1340390Y1435063D1*
X1336079Y1433637D1*
X1333227D1*
X1328916Y1435063D1*
X1326064Y1439374D1*
X1324605Y1446537D1*
Y1450848D1*
X1326064Y1458011D1*
X1328916Y1462322D1*
X1333227Y1463748D1*
X1336079D1*
X1326064Y1458011D2*
X1343275Y1439374D1*
X1738962Y957522D2*
Y934575D1*
X1740388Y930264D1*
X1741847Y928838D1*
X1744699Y927378D1*
X1747584D1*
X1750436Y928838D1*
X1751862Y930264D1*
X1753321Y934575D1*
Y937426D1*
X1729699Y951752D2*
X1726814Y953211D1*
X1722503Y957489D1*
Y927378D1*
X1713239Y951752D2*
X1710354Y953211D1*
X1706043Y957489D1*
Y927378D1*
X1370412Y957522D2*
Y934575D1*
X1371838Y930264D1*
X1373297Y928838D1*
X1376149Y927378D1*
X1379034D1*
X1381886Y928838D1*
X1383312Y930264D1*
X1384771Y934575D1*
Y937426D1*
X1361149Y951752D2*
X1358263Y953211D1*
X1353952Y957489D1*
Y927378D1*
X1343230Y950326D2*
Y951752D1*
X1341804Y954637D1*
X1340378Y956063D1*
X1337493Y957489D1*
X1331756D1*
X1328904Y956063D1*
X1327478Y954637D1*
X1326019Y951752D1*
Y948900D1*
X1327478Y946015D1*
X1330330Y941737D1*
X1344689Y927378D1*
X1324593D1*
X1773136Y3232881D2*
Y3211359D1*
X1771710Y3207048D1*
X1768825Y3204196D1*
X1764514Y3202737D1*
X1761662D1*
X1757351Y3204196D1*
X1754466Y3207048D1*
X1753040Y3211359D1*
Y3232881D1*
X1736614Y3232848D2*
X1740891Y3231422D1*
X1742350Y3228570D1*
Y3225685D1*
X1740891Y3222833D1*
X1738039Y3221374D1*
X1732302Y3219948D1*
X1727991Y3218522D1*
X1725140Y3215637D1*
X1723714Y3212785D1*
Y3208474D1*
X1725140Y3205622D1*
X1726566Y3204163D1*
X1730877Y3202737D1*
X1736614D1*
X1740891Y3204163D1*
X1742350Y3205622D1*
X1743776Y3208474D1*
Y3212785D1*
X1742350Y3215637D1*
X1739465Y3218522D1*
X1735188Y3219948D1*
X1729451Y3221374D1*
X1726566Y3222833D1*
X1725140Y3225685D1*
Y3228570D1*
X1726566Y3231422D1*
X1730877Y3232848D1*
X1736614D1*
X616227Y3232881D2*
Y3211359D1*
X614801Y3207048D1*
X611916Y3204196D1*
X607605Y3202737D1*
X604753D1*
X600442Y3204196D1*
X597557Y3207048D1*
X596131Y3211359D1*
Y3232881D1*
X568197Y3222833D2*
X569657Y3218522D1*
X572508Y3215637D1*
X576819Y3214211D1*
X578245D1*
X582556Y3215637D1*
X585408Y3218522D1*
X586867Y3222833D1*
Y3224259D1*
X585408Y3228570D1*
X582556Y3231422D1*
X578245Y3232848D1*
X576819D1*
X572508Y3231422D1*
X569657Y3228570D1*
X568197Y3222833D1*
Y3215637D1*
X569657Y3208474D1*
X572508Y3204163D1*
X576819Y3202737D1*
X579671D1*
X583982Y3204163D1*
X585408Y3207048D1*
X1193638Y3368983D2*
Y3347461D1*
X1192213Y3343150D1*
X1189327Y3340298D1*
X1185016Y3338839D1*
X1182165D1*
X1177853Y3340298D1*
X1174968Y3343150D1*
X1173542Y3347461D1*
Y3368983D1*
X1164279Y3363213D2*
X1161394Y3364672D1*
X1157083Y3368950D1*
Y3338839D1*
X1147819Y3363213D2*
X1144934Y3364672D1*
X1140623Y3368950D1*
Y3338839D1*
M02*
