G04 DipTrace 4.1.3.1*
G04 uTemp1.2.GBS*
%MOIN*%
G04 #@! TF.FileFunction,Soldermask,Bot*
G04 #@! TF.Part,Single*
%AMOUTLINE2*
4,1,8,
-0.034184,0.014159,
-0.014159,0.034184,
0.014159,0.034184,
0.034184,0.014159,
0.034184,-0.014159,
0.014159,-0.034184,
-0.014159,-0.034184,
-0.034184,-0.014159,
-0.034184,0.014159,
0*%
%ADD44C,0.059055*%
%ADD58O,0.177291X0.12611*%
%ADD66O,0.068X0.088*%
%ADD70C,0.070992*%
%ADD72R,0.070992X0.070992*%
%ADD76C,0.068*%
%ADD77R,0.068X0.068*%
%ADD79R,0.12611X0.145795*%
%ADD81C,0.08674*%
%ADD85C,0.073*%
%ADD87O,0.093X0.083*%
%ADD106OUTLINE2*%
%FSLAX26Y26*%
G04*
G70*
G90*
G75*
G01*
G04 BotMask*
%LPD*%
D87*
X979682Y1794089D3*
Y1469089D3*
D85*
Y1894089D3*
D87*
X604643Y1794089D3*
Y1469089D3*
D85*
Y1894089D3*
D87*
X979682Y1287348D3*
Y962348D3*
D85*
Y1387348D3*
D87*
X604643Y1287348D3*
Y962348D3*
D85*
Y1387348D3*
D87*
X979682Y781089D3*
Y456089D3*
D85*
Y881089D3*
D87*
X604643Y781089D3*
Y456089D3*
D85*
Y881089D3*
D81*
X1567194Y2248821D3*
X1665619D3*
X1468769D3*
X1665619Y2819687D3*
X1468769D3*
D79*
X1342784Y2544096D3*
X1791603D3*
D81*
X767194Y2248821D3*
X865619D3*
X668769D3*
X865619Y2819687D3*
X668769D3*
D79*
X542784Y2544096D3*
X991603D3*
D77*
X692162Y869089D3*
D76*
X792162D3*
X892162D3*
D87*
X1729694Y1793596D3*
Y1468596D3*
D85*
Y1893596D3*
D87*
X1354694Y1793596D3*
Y1468596D3*
D85*
Y1893596D3*
D87*
X1729694Y1287347D3*
Y962347D3*
D85*
Y1387347D3*
D87*
X1354694Y1287347D3*
Y962347D3*
D85*
Y1387347D3*
D87*
X1729682Y781089D3*
Y456089D3*
D85*
Y881089D3*
D87*
X1354682Y781089D3*
Y456089D3*
D85*
Y881089D3*
D106*
X1373443Y4444096D3*
Y4344096D3*
X1273443Y4444096D3*
Y4344096D3*
X1173443Y4444096D3*
Y4344096D3*
X1073443Y4444096D3*
Y4344096D3*
X973443Y4444096D3*
Y4344096D3*
D72*
X1817162Y3644089D3*
D70*
X1717162D3*
X1617162D3*
X1517162D3*
X1417162D3*
X1317162D3*
X1217162D3*
X1117162D3*
X1017162D3*
X917162D3*
X817162D3*
X717162D3*
X617162D3*
X517162D3*
Y3144089D3*
Y3044089D3*
X617162D3*
X717162D3*
X817162D3*
X917162D3*
X1017162D3*
X1117162D3*
X1217162D3*
X1317162D3*
X1417162D3*
X1517162D3*
X1617162D3*
X1717162D3*
X1817162D3*
X617162Y3244089D3*
D81*
X1439241Y3141144D3*
Y3318309D3*
X1695147D3*
Y3141144D3*
X895147Y3318309D3*
Y3141144D3*
X639241D3*
Y3318309D3*
D66*
X1467131Y4593656D3*
X1367131D3*
X1267131D3*
X1167131D3*
X1067131D3*
X967131D3*
X867131D3*
D44*
X1567120Y3344089D3*
D58*
X567162Y4594089D3*
X1767162D3*
G36*
X723412Y3762839D2*
X417162D1*
X410912Y4444089D1*
X648412D1*
Y4306589D1*
X798412D1*
X860912Y4237839D1*
Y3862839D1*
X835912Y3837839D1*
X792162D1*
X723412Y3762839D1*
G37*
M02*
