G04 DipTrace 4.1.3.1*
G04 uTemp1.2.GTS*
%MOIN*%
G04 #@! TF.FileFunction,Soldermask,Top*
G04 #@! TF.Part,Single*
%AMOUTLINE0*
4,1,4,
-0.019685,-0.031496,
0.019685,-0.031496,
0.019685,0.031496,
-0.019685,0.031496,
-0.019685,-0.031496,
0*%
%AMOUTLINE1*
4,1,4,
-0.106299,-0.122047,
0.106299,-0.122047,
0.106299,0.122047,
-0.106299,0.122047,
-0.106299,-0.122047,
0*%
%AMOUTLINE2*
4,1,8,
-0.034184,0.014159,
-0.014159,0.034184,
0.014159,0.034184,
0.034184,0.014159,
0.034184,-0.014159,
0.014159,-0.034184,
-0.014159,-0.034184,
-0.034184,-0.014159,
-0.034184,0.014159,
0*%
%AMOUTLINE3*
4,1,4,
-0.031496,-0.035492,
0.031496,-0.035492,
0.031496,0.035492,
-0.031496,0.035492,
-0.031496,-0.035492,
0*%
%ADD44C,0.059055*%
%ADD58O,0.177291X0.12611*%
%ADD62R,0.049339X0.033591*%
%ADD64R,0.031622X0.051307*%
%ADD66O,0.068X0.088*%
%ADD68R,0.08674X0.031622*%
%ADD70C,0.070992*%
%ADD72R,0.070992X0.070992*%
%ADD74R,0.033591X0.049339*%
%ADD76C,0.068*%
%ADD77R,0.068X0.068*%
%ADD79R,0.12611X0.145795*%
%ADD81C,0.08674*%
%ADD83R,0.094614X0.04737*%
%ADD85C,0.073*%
%ADD87O,0.093X0.083*%
%ADD89R,0.108394X0.070992*%
%ADD91R,0.067055X0.059181*%
%ADD93R,0.070992X0.108394*%
%ADD95R,0.059181X0.067055*%
%ADD97R,0.072961X0.120205*%
%ADD104OUTLINE0*%
%ADD105OUTLINE1*%
%ADD106OUTLINE2*%
%ADD107OUTLINE3*%
%FSLAX26Y26*%
G04*
G70*
G90*
G75*
G01*
G04 TopMask*
%LPD*%
D97*
X1173412Y2681589D3*
Y2846943D3*
X760912Y2696943D3*
Y2531589D3*
D95*
X535912Y1962839D3*
X461109D3*
X1160912Y2000339D3*
X1086109D3*
X1335716Y2237839D3*
X1260913D3*
X1523510Y981490D3*
X1598313D3*
D93*
X1704662Y3862839D3*
Y4000635D3*
D95*
X1642162Y2531589D3*
X1567359D3*
X1554662Y462839D3*
X1629465D3*
D91*
X985912Y2169089D3*
Y2243892D3*
D95*
X773413Y987839D3*
X848216D3*
X817162Y1325339D3*
X891965D3*
X817261Y768990D3*
X892064D3*
X1617263Y2937738D3*
X1692067D3*
X711010Y450241D3*
X785813D3*
X804761Y1806490D3*
X879564D3*
X711010Y1437741D3*
X785813D3*
X648609Y2394089D3*
X723412D3*
X766965Y1900339D3*
X692162D3*
D91*
X1860912Y1562839D3*
Y1637642D3*
D89*
X1017162Y4044089D3*
X1154958D3*
D91*
X1248510Y1731687D3*
Y1806490D3*
D95*
X1504664Y2912839D3*
X1429860D3*
D91*
X1535912Y3806589D3*
Y3881392D3*
X817162Y3800339D3*
Y3875142D3*
X1592118Y4562401D3*
Y4487598D3*
D95*
X567162Y2906589D3*
X492359D3*
D87*
X979682Y1794089D3*
Y1469089D3*
D85*
Y1894089D3*
D87*
X604643Y1794089D3*
Y1469089D3*
D85*
Y1894089D3*
D87*
X979682Y1287348D3*
Y962348D3*
D85*
Y1387348D3*
D87*
X604643Y1287348D3*
Y962348D3*
D85*
Y1387348D3*
D87*
X979682Y781089D3*
Y456089D3*
D85*
Y881089D3*
D87*
X604643Y781089D3*
Y456089D3*
D85*
Y881089D3*
D83*
X1742102Y4206188D3*
Y4306188D3*
X1517299D3*
Y4206188D3*
D81*
X1567194Y2248821D3*
X1665619D3*
X1468769D3*
X1665619Y2819687D3*
X1468769D3*
D79*
X1342784Y2544096D3*
X1791603D3*
D81*
X767194Y2248821D3*
X865619D3*
X668769D3*
X865619Y2819687D3*
X668769D3*
D79*
X542784Y2544096D3*
X991603D3*
D104*
X692196Y4281628D3*
X512669D3*
D105*
X602433Y3994226D3*
D77*
X692162Y869089D3*
D76*
X792162D3*
X892162D3*
D87*
X1729694Y1793596D3*
Y1468596D3*
D85*
Y1893596D3*
D87*
X1354694Y1793596D3*
Y1468596D3*
D85*
Y1893596D3*
D87*
X1729694Y1287347D3*
Y962347D3*
D85*
Y1387347D3*
D87*
X1354694Y1287347D3*
Y962347D3*
D85*
Y1387347D3*
D87*
X1729682Y781089D3*
Y456089D3*
D85*
Y881089D3*
D87*
X1354682Y781089D3*
Y456089D3*
D85*
Y881089D3*
D106*
X1373443Y4444096D3*
Y4344096D3*
X1273443Y4444096D3*
Y4344096D3*
X1173443Y4444096D3*
Y4344096D3*
X1073443Y4444096D3*
Y4344096D3*
X973443Y4444096D3*
Y4344096D3*
D74*
X1448412Y2612838D3*
X1523215D3*
X1485813Y2703389D3*
X1523412Y2419089D3*
X1448609D3*
X1486010Y2328537D3*
D95*
X1123216Y1731589D3*
X1048413D3*
X460913D3*
X535716D3*
X1048413Y1631589D3*
X1123216D3*
X1129465Y1525339D3*
X1054662D3*
X529662Y1631589D3*
X454859D3*
X454662Y1525339D3*
X529465D3*
X1142162Y1319090D3*
X1067359D3*
X1067162Y1206590D3*
X1141965D3*
Y1094089D3*
X1067162D3*
X454859Y1225339D3*
X529662D3*
X529465Y1119089D3*
X454662D3*
X529662Y1019089D3*
X454859D3*
D91*
X1617064Y1706687D3*
Y1781490D3*
X1617162Y1962642D3*
Y1887839D3*
X1479564Y1712938D3*
Y1787741D3*
X1485912Y1962642D3*
Y1887839D3*
X1648412Y2712839D3*
Y2638036D3*
Y2344285D3*
Y2419089D3*
D95*
X1142162Y787839D3*
X1067359D3*
Y669089D3*
X1142162D3*
D91*
X1854662Y869089D3*
Y943892D3*
D95*
X1873216Y1044089D3*
X1798413D3*
X1804761Y1168990D3*
X1879564D3*
D91*
X1860912Y1456589D3*
Y1381785D3*
X1467162Y800339D3*
Y875142D3*
D95*
X1298510Y1062741D3*
X1373313D3*
Y1175241D3*
X1298510D3*
D91*
X1479662Y1450338D3*
Y1375535D3*
D95*
X1798413Y512839D3*
X1873216D3*
X1892162Y619089D3*
X1817359D3*
X1817162Y731589D3*
X1891965D3*
D91*
X1610912Y1450338D3*
Y1375535D3*
D95*
X1254662Y456589D3*
X1179859D3*
X1317259Y575241D3*
X1392063D3*
Y681490D3*
X1317259D3*
D91*
X1254662Y1450338D3*
Y1375535D3*
Y1631589D3*
Y1556785D3*
X1423412Y3806589D3*
Y3881392D3*
X942162Y3800339D3*
Y3875142D3*
X748412Y4556589D3*
Y4631392D3*
D95*
X1142064Y556490D3*
X1067261D3*
X448413Y731589D3*
X523216D3*
Y625339D3*
X448413D3*
X454662Y525339D3*
X529465D3*
X479859Y2394089D3*
X554662D3*
Y2287839D3*
X479859D3*
X554662Y2181589D3*
X479859D3*
X479662Y2069089D3*
X554465D3*
X1154564Y2118990D3*
X1079761D3*
X1154662Y2256589D3*
X1079859D3*
X1260913Y2112839D3*
X1335716D3*
D107*
X1417162Y4044089D3*
X1305194D3*
D72*
X1817162Y3644089D3*
D70*
X1717162D3*
X1617162D3*
X1517162D3*
X1417162D3*
X1317162D3*
X1217162D3*
X1117162D3*
X1017162D3*
X917162D3*
X817162D3*
X717162D3*
X617162D3*
X517162D3*
Y3144089D3*
Y3044089D3*
X617162D3*
X717162D3*
X817162D3*
X917162D3*
X1017162D3*
X1117162D3*
X1217162D3*
X1317162D3*
X1417162D3*
X1517162D3*
X1617162D3*
X1717162D3*
X1817162D3*
X617162Y3244089D3*
D68*
X898511Y1556589D3*
Y1606589D3*
Y1656589D3*
Y1706589D3*
X685913D3*
Y1656589D3*
Y1606589D3*
Y1556589D3*
X898510Y1075339D3*
Y1125339D3*
Y1175339D3*
Y1225339D3*
X685912D3*
Y1175339D3*
Y1125339D3*
Y1075339D3*
X1692211Y1069138D3*
Y1119138D3*
Y1169138D3*
Y1219138D3*
X1479612D3*
Y1169138D3*
Y1119138D3*
Y1069138D3*
D74*
X1574839Y1620712D3*
X1500036D3*
X1537438Y1530161D3*
D68*
X898511Y537839D3*
Y587839D3*
Y637839D3*
Y687839D3*
X685913D3*
Y637839D3*
Y587839D3*
Y537839D3*
D81*
X1439241Y3141144D3*
Y3318309D3*
X1695147D3*
Y3141144D3*
X895147Y3318309D3*
Y3141144D3*
X639241D3*
Y3318309D3*
D68*
X1698462Y544138D3*
Y594138D3*
Y644138D3*
Y694138D3*
X1485863D3*
Y644138D3*
Y594138D3*
Y544138D3*
D66*
X1467131Y4593656D3*
X1367131D3*
X1267131D3*
X1167131D3*
X1067131D3*
X967131D3*
X867131D3*
D68*
X685913Y2131589D3*
Y2081589D3*
Y2031589D3*
Y1981589D3*
X898511D3*
Y2031589D3*
Y2081589D3*
Y2131589D3*
D64*
X1854662Y2225338D3*
X1817261D3*
X1779859D3*
Y2119039D3*
X1854662D3*
D95*
X1767194Y2768745D3*
X1841997D3*
D62*
X1848341Y2862579D3*
Y2937383D3*
X1757790Y2899981D3*
D44*
X1567120Y3344089D3*
D58*
X567162Y4594089D3*
X1767162D3*
G36*
X404742Y3674994D2*
X548477D1*
Y3887472D1*
X710960D1*
Y4024957D1*
X917189D1*
Y4218687D1*
X642217D1*
Y4356173D1*
X679714Y4393669D1*
Y4456162D1*
X404742D1*
D1*
Y3674994D1*
G37*
M02*
